<?xml version="1.0" encoding="UTF-8" standalone="no"?>
<svg xmlns="http://www.w3.org/2000/svg" width="16" height="16" viewBox="0 0 16 16" version="1.1">
    <path d="m 13.183037,3.5253612 c -0.4926,-0.4926 -1.2858,-0.4926 -1.7785,0 l -4.8335995,4.8336 -1.9753,-1.9753 c -0.4926,-0.4927 -1.2858,-0.4927 -1.7785,0 l -0.7242,0.7242 c -0.4927,0.4927 -0.4927,1.2859 0,1.7785 l 2.8645,2.8645998 0.7241,0.7241 c 0.092,0.092 0.1954,0.1673 0.305,0.2251 0.073,0.038 0.1491,0.069 0.2268,0.092 0.4275,0.127 0.908,0.021 1.2467,-0.3175 l 0.7243,-0.7243 5.7228005,-5.7227998 c 0.4926,-0.4926 0.4926,-1.2858 0,-1.7785 l -0.7241,-0.7241 z"
          style="color:#000000;clip-rule:nonzero;display:inline;overflow:visible;visibility:visible;opacity:1;isolation:auto;mix-blend-mode:normal;color-interpolation:sRGB;color-interpolation-filters:linearRGB;solid-color:#000000;solid-opacity:1;fill:#5cb85c;fill-opacity:1;fill-rule:nonzero;stroke:none;stroke-width:1;stroke-linecap:round;stroke-linejoin:round;stroke-miterlimit:4;stroke-dasharray:none;stroke-dashoffset:14.88188934;stroke-opacity:1;color-rendering:auto;image-rendering:auto;shape-rendering:auto;text-rendering:auto;enable-background:accumulate"/>
</svg>
